Coordinates
version=1
nRows=19
nColumns=24
inDegrees=yes

Units are S.I. units (second, meters, Newtons, ...)
Angles are in degrees.

endheader
time	pelvis_tilt	pelvis_list	pelvis_rotation	pelvis_tx	pelvis_ty	pelvis_tz	hip_flexion_r	hip_adduction_r	hip_rotation_r	knee_angle_r	ankle_angle_r	subtalar_angle_r	mtp_angle_r	hip_flexion_l	hip_adduction_l	hip_rotation_l	knee_angle_l	ankle_angle_l	subtalar_angle_l	mtp_angle_l	lumbar_extension	lumbar_bending	lumbar_rotation
      2.23500000	     -7.39611733	      2.74359643	    357.25227884	     -0.25577106	      1.39134849	     -1.02809800	     31.52845292	     -0.79873686	      2.90201419	    -30.13389147	      3.36790878	     -4.81682909	     11.74854959	      5.58256650	      7.83185526	      2.00562672	     -7.22130773	      2.25250534	     -6.49330457	     16.35798484	     -7.77631012	      3.20516210	     10.40819529
      2.24000000	     -7.40576148	      2.76247869	    357.38799166	     -0.25082170	      1.39087775	     -1.02812493	     31.32621648	     -0.88300764	      2.92924624	    -28.11862355	      2.93252178	     -4.85137105	     11.50730178	      5.20735935	      7.87502858	      2.13935005	     -7.09287056	      2.49120373	     -6.36832155	     16.31852916	     -7.73238950	      3.16134438	     10.34625562
      2.24500000	     -7.41317471	      2.80111129	    357.52244114	     -0.24584125	      1.39035571	     -1.02812515	     31.09489891	     -0.98796521	      2.97845486	    -26.06572388	      2.46687543	     -4.88707518	     11.31789948	      4.82362696	      7.93756070	      2.26480568	     -6.95571498	      2.73812820	     -6.24956489	     16.25084400	     -7.68975269	      3.09649815	     10.25988479
      2.25000000	     -7.44263954	      2.85574546	    357.67652030	     -0.24088121	      1.38975938	     -1.02812929	     30.86559303	     -1.11846709	      3.05117730	    -23.98765701	      1.98825989	     -4.89718610	     11.18443124	      4.47910619	      8.01702085	      2.42774006	     -6.84753152	      2.98519811	     -6.14180027	     16.17631851	     -7.62682251	      3.00929770	     10.17094476
      2.25500000	     -7.52412780	      2.92821104	    357.85397498	     -0.23593535	      1.38903238	     -1.02816143	     30.68342225	     -1.28064026	      3.12991659	    -21.91614243	      1.53862651	     -4.86302882	     11.06906936	      4.20525886	      8.11655016	      2.65098478	     -6.76619849	      3.25083101	     -6.08634388	     16.14100428	     -7.50226502	      2.89421739	     10.11801527
      2.26000000	     -7.58600278	      3.01126201	    358.02403188	     -0.23099154	      1.38830586	     -1.02816245	     30.45549880	     -1.45101266	      3.25116591	    -19.82103092	      1.05598591	     -4.83704284	     10.99890799	      3.91063959	      8.22549987	      2.84789353	     -6.68690577	      3.49110647	     -6.01717080	     16.06059762	     -7.40965985	      2.77916752	     10.00456572
      2.26500000	     -7.60458900	      3.10175697	    358.17580376	     -0.22607484	      1.38758204	     -1.02811596	     30.16497944	     -1.62585156	      3.41675922	    -17.71687004	      0.53333001	     -4.80826754	     11.16065931	      3.56674093	      8.33811470	      2.98909317	     -6.60373480	      3.76165612	     -5.87734518	     15.85122235	     -7.38614868	      2.64845406	      9.89807205
      2.27000000	     -7.71696809	      3.20258800	    358.39017846	     -0.22114729	      1.38673181	     -1.02815193	     29.95966722	     -1.84342928	      3.55752363	    -15.63574718	      0.07868824	     -4.75617390	     11.11980722	      3.34757352	      8.46746114	      3.25971516	     -6.56689991	      3.98364165	     -5.87065541	     15.79251390	     -7.24781546	      2.51102979	      9.74180017
      2.27500000	     -7.75162301	      3.30421895	    358.58398373	     -0.21616868	      1.38592108	     -1.02816119	     29.64455708	     -2.06331420	      3.70453209	    -13.54687810	     -0.41411989	     -4.70500310	     11.23843392	      3.01804296	      8.59583979	      3.49107629	     -6.48754443	      4.21652063	     -5.85034693	     15.66149518	     -7.19695078	      2.37657151	      9.57234136
      2.28000000	     -7.79497820	      3.41260135	    358.80281385	     -0.21117917	      1.38505282	     -1.02821018	     29.32650315	     -2.30918439	      3.84230281	    -11.48910004	     -0.88699376	     -4.63482489	     11.39855154	      2.70845815	      8.73382366	      3.76493129	     -6.43614141	      4.46249418	     -5.83678701	     15.53252278	     -7.13810222	      2.23584119	      9.39935580
      2.28500000	     -7.95021342	      3.54615872	    359.03015119	     -0.20614109	      1.38401857	     -1.02826203	     29.14425809	     -2.58367484	      3.96243272	     -9.52390156	     -1.29215218	     -4.44419593	     11.38533387	      2.53728706	      8.89627594	      4.03525106	     -6.42156005	      4.68069963	     -5.83886454	     15.51405989	     -6.92708653	      2.03851587	      9.33455325
      2.29000000	     -7.88896280	      3.66920778	    359.26840775	     -0.20106092	      1.38316754	     -1.02832864	     28.69261511	     -2.86857117	      4.05246763	     -7.55938874	     -1.77919467	     -4.41587127	     11.91896615	      2.08673004	      9.05149820	      4.36828730	     -6.34331369	      4.94297070	     -5.84913916	     15.21035147	     -6.98519033	      1.89438551	      9.07448811
      2.29500000	     -7.97765891	      3.80969722	    359.52416640	     -0.19597926	      1.38210398	     -1.02840197	     28.44864855	     -3.16958449	      4.12071198	     -5.77191044	     -2.13321445	     -4.24482556	     11.97373730	      1.83434584	      9.22290286	      4.71755787	     -6.33093685	      5.18666755	     -5.91547941	     15.13210659	     -6.87191110	      1.73172330	      8.81877086
      2.30000000	     -7.98501187	      3.96039806	    359.76793477	     -0.19085688	      1.38109627	     -1.02845705	     28.13649157	     -3.47649592	      4.10534356	     -4.10826149	     -2.45226303	     -4.00352181	     12.14919608	      1.47019655	      9.40273012	      5.05056747	     -6.28164267	      5.40194245	     -5.99287461	     14.96832765	     -6.85048860	      1.55056320	      8.58345120
      2.30500000	     -8.01309637	      4.09793940	    360.01585021	     -0.18569178	      1.38004939	     -1.02851302	     27.87616999	     -3.76467681	      4.04774938	     -2.60562818	     -2.69111840	     -3.72973704	     12.30881510	      1.13269112	      9.56520981	      5.40031909	     -6.25092534	      5.63529065	     -6.06007489	     14.82470670	     -6.79846413	      1.38273403	      8.37228404
      2.31000000	     -8.03141024	      4.22536956	    360.25267003	     -0.18048702	      1.37901014	     -1.02853641	     27.64109172	     -4.02594801	      3.93814630	     -1.27830578	     -2.86335318	     -3.43163763	     12.43697397	      0.78146100	      9.71159501	      5.74435098	     -6.22122924	      5.86951455	     -6.12763291	     14.68276608	     -6.75281347	      1.22788101	      8.16552239
      2.31500000	     -8.03011677	      4.32903400	    360.48079096	     -0.17523977	      1.37800117	     -1.02854124	     27.42139766	     -4.24736829	      3.77549686	     -0.13763454	     -2.97115419	     -3.11840685	     12.55351183	      0.40460621	      9.82724236	      6.08188458	     -6.19116580	      6.10576256	     -6.18888250	     14.53788177	     -6.72727930	      1.10331414	      7.97481039
      2.32000000	     -8.01064160	      4.40049156	    360.69700129	     -0.16994916	      1.37702633	     -1.02852022	     27.22095115	     -4.41676561	      3.56362891	      0.80820533	     -3.02485783	     -2.82268046	     12.63702806	      0.00408559	      9.90195967	      6.40853772	     -6.15831945	      6.34918016	     -6.24047078	     14.40408367	     -6.71937886	      1.01706658	      7.80459115
      2.32500000	     -7.96809968	      4.43953604	    360.90175314	     -0.16461193	      1.37611155	     -1.02846922	     27.03195165	     -4.53376360	      3.31573079	      1.56079047	     -3.02616864	     -2.55844572	     12.70120508	     -0.42249022	      9.93494098	      6.71947249	     -6.12832228	      6.59192207	     -6.27592554	     14.27575684	     -6.73083843	      0.96873351	      7.65089377
